<?xml version="1.0" encoding="utf-8"?>
<!-- Generator: Adobe Illustrator 22.0.1, SVG Export Plug-In . SVG Version: 6.00 Build 0)  -->
<svg version="1.1" id="레이어_1" xmlns="http://www.w3.org/2000/svg" xmlns:xlink="http://www.w3.org/1999/xlink" x="0px"
	 y="0px" viewBox="0 0 140 95" style="enable-background:new 0 0 140 95;" xml:space="preserve">
<style type="text/css">
	.st0{fill:#FFFFFF;}
</style>
<g>
	<path class="st0" d="M89.5,24.3L89.5,24.3c0-0.4-0.1-0.7-0.2-1c-0.8-1.6-1.2-3.5-1.2-5.4c0-8,7.2-14.3,15.4-12.9
		c5.3,0.9,9.6,5.2,10.5,10.5c0.5,2.8,0.1,5.5-1,7.8c-0.1,0.3-0.2,0.7-0.2,1c0,2.5,3.5,3.4,4.6,1.1c1.4-2.9,2-6.3,1.5-9.8
		c-1-8.1-7.6-14.5-15.7-15.4C92.4-1,83.3,7.4,83.3,18c0,2.6,0.6,5.1,1.6,7.4C86,27.6,89.5,26.9,89.5,24.3z"/>
	<path class="st0" d="M132,41.3c-1.2,0-2.4,0.3-3.5,0.8c-1.5-2.1-4-3.4-6.7-3.4c-1.4,0-2.7,0.3-3.9,1c-1.6-1.9-3.9-3-6.4-3
		c-0.6,0-1.3,0.1-1.9,0.2v-19c0-4.6-3.8-8.4-8.4-8.4s-8.4,3.8-8.4,8.4v35.3L88.7,47c-1.2-1.8-3-2.9-5.2-3.3
		c-2.1-0.3-4.3,0.2-6.1,1.4s-3.1,3-3.7,5.1c-0.6,2.2-0.2,4.3,0.9,6.1c0.2,0.3,16.8,25.5,19.7,29.8c3.6,5.3,10.8,9,17.5,9h6.6
		c11.8,0,21.5-9.5,21.6-21.2v-24C140,45,136.6,41.3,132,41.3z M135.2,73.3v0.4c-0.1,9.1-7.6,16.5-16.8,16.5h-6.6
		c-5.8,0-11.3-3.6-13.6-6.9c-2.9-4.2-19.5-29.4-19.7-29.7c-0.4-0.6-0.5-1.4-0.3-2.2c0.2-0.9,0.8-1.7,1.7-2.3
		c0.7-0.4,1.4-0.7,2.2-0.7c0.2,0,0.4,0,0.5,0c0.8,0.1,1.5,0.5,1.9,1.2L93,62.5c0.6,0.9,1.7,1.3,2.7,1s1.7-1.2,1.7-2.3V17.9
		c0-2,1.6-3.6,3.6-3.6s3.6,1.6,3.6,3.6v34.4c0,1.3,1.1,2.4,2.4,2.4c1.3,0,2.4-1.1,2.4-2.4V42.1c0.6-0.3,1.2-0.5,1.9-0.5
		c1.5,0,2.7,0.9,3.3,2.2v9.1c0,1.3,1.1,2.4,2.4,2.4s2.4-1.1,2.4-2.4v-8.5c0.6-0.5,1.4-0.8,2.2-0.8c1.6,0,2.9,1,3.4,2.5v8
		c0,1.3,1.1,2.4,2.4,2.4c1.3,0,2.4-1.1,2.4-2.4v-7.2c0.6-0.4,1.3-0.7,2.1-0.7c2.1,0,3.2,1.8,3.2,3.6v23.5H135.2z"/>
</g>
<path class="st0" d="M29.9,0C13.4,0,0,13.4,0,29.9v35.2C0,81.6,13.4,95,29.9,95s29.9-13.4,29.9-29.9V29.9C59.8,13.4,46.4,0,29.9,0z
	 M29.9,17.9c2,0,3.5,1.6,3.5,3.5v12.2c0,2-1.6,3.5-3.5,3.5c-2,0-3.5-1.6-3.5-3.5V21.4C26.4,19.4,27.9,17.9,29.9,17.9z M54.9,65.1
	c0,13.8-11.2,25-25,25s-25-11.2-25-25V29.9c0-13,9.9-23.7,22.6-24.9v8.3c-3.5,1-6,4.3-6,8.1v12.2c0,4.6,3.8,8.4,8.4,8.4
	c4.6,0,8.4-3.8,8.4-8.4V21.4c0-3.8-2.5-7-6-8.1V5c12.6,1.2,22.6,11.9,22.6,24.9V65.1z"/>
</svg>
